<svg xmlns="http://www.w3.org/2000/svg" version="1.1" xmlns:xlink="http://www.w3.org/1999/xlink" xmlns:svgjs="http://svgjs.com/svgjs" width="3000" height="2000" preserveAspectRatio="none" viewBox="0 0 3000 2000"><g mask="url(&quot;#SvgjsMask1069&quot;)" fill="none"><path d="M1879.627,2625.72C2030.005,2622.067,2158.96,2528.124,2233.385,2397.404C2306.965,2268.167,2315.349,2113.166,2246.494,1981.351C2172.002,1838.746,2040.516,1719.928,1879.627,1720.178C1719.074,1720.428,1592.491,1842.023,1514.732,1982.489C1439.755,2117.929,1418.412,2280.692,1494.797,2415.343C1572.111,2551.631,1722.983,2629.525,1879.627,2625.72" fill="rgba(109, 113, 249, 0.1450980392156863)" class="triangle-float1"></path><path d="M3086.927,2473.825C3294.225,2492.417,3517.121,2409.354,3613.662,2224.969C3705.646,2049.289,3603.39,1851.639,3501.894,1681.277C3403.747,1516.536,3278.662,1343.965,3086.927,1340.835C2891.459,1337.644,2732.402,1491.089,2647.813,1667.335C2573.78,1821.587,2620.022,1992.92,2701.839,2143.188C2788.55,2302.444,2906.32,2457.627,3086.927,2473.825" fill="rgba(109, 113, 249, 0.1450980392156863)" class="triangle-float3"></path><path d="M905.634,2045.504C1050.103,2041.607,1178.484,1967.696,1258.179,1847.133C1348.435,1710.593,1417.44,1537.094,1335.28,1395.534C1253.317,1254.315,1068.681,1230.961,905.634,1239.709C760.125,1247.516,625.568,1313.706,549.05,1437.717C468.296,1568.594,440.709,1734.443,518.529,1867.086C595.588,1998.432,753.407,2049.611,905.634,2045.504" fill="rgba(109, 113, 249, 0.1450980392156863)" class="triangle-float3"></path><path d="M246.305,2090.512C354.325,2085.355,435.208,2001.155,486.035,1905.701C533.39,1816.768,545.117,1711.117,494.806,1623.822C444.433,1536.42,347.05,1494.942,246.305,1489.744C133.708,1483.934,9.921,1500.772,-50.973,1595.66C-115.672,1696.477,-98.336,1827.969,-36.648,1930.656C23.142,2030.184,130.331,2096.049,246.305,2090.512" fill="rgba(109, 113, 249, 0.1450980392156863)" class="triangle-float1"></path><path d="M260.508,428.082C373.198,422.6,479.652,372.634,536.974,275.458C595.219,176.716,597.265,53.789,539.81,-45.415C482.486,-144.392,374.883,-200.925,260.508,-201.897C144.336,-202.884,35.901,-147.817,-27.138,-50.232C-96.399,56.985,-132.616,195.445,-66.834,304.831C-2.433,411.921,135.693,434.154,260.508,428.082" fill="rgba(109, 113, 249, 0.1450980392156863)" class="triangle-float1"></path><path d="M2464.941,946.961C2530.663,951.383,2602.461,936.745,2636.975,880.64C2672.743,822.497,2659.345,747.843,2622.967,690.079C2589.018,636.172,2528.618,605.553,2464.941,607.468C2404.475,609.287,2351.277,645.87,2322.565,699.115C2295.279,749.716,2300.18,810.058,2328.816,859.907C2357.571,909.963,2407.344,943.086,2464.941,946.961" fill="rgba(109, 113, 249, 0.1450980392156863)" class="triangle-float2"></path><path d="M500.489,2288.454C664.26,2291.731,810.946,2185.573,885.72,2039.831C954.663,1905.454,926.305,1745.718,843.872,1619.167C769.093,1504.367,637.214,1457.22,500.489,1448.427C341.405,1438.196,155.352,1434.185,71.014,1569.461C-16.088,1709.17,56.638,1883.591,141.065,2024.932C222.717,2161.628,341.295,2285.269,500.489,2288.454" fill="rgba(109, 113, 249, 0.1450980392156863)" class="triangle-float2"></path><path d="M2142.312,842.363C2288.817,844.83,2447.555,807.97,2518.941,680.01C2589.09,554.267,2525.671,407.485,2454.864,282.111C2382.418,153.834,2289.144,25.126,2142.312,13.132C1976.597,-0.404,1806.064,76.508,1726.747,222.637C1650.204,363.656,1697.666,534.421,1787.028,667.686C1865.802,785.161,2000.89,839.982,2142.312,842.363" fill="rgba(109, 113, 249, 0.1450980392156863)" class="triangle-float3"></path><path d="M379.569,1906.608C479.416,1908.387,564.959,1840.75,613.362,1753.401C660.213,1668.853,660.376,1567.869,614.391,1482.847C565.932,1393.25,481.408,1323.314,379.569,1321.138C274.318,1318.89,175.136,1378.957,126.703,1472.429C81.521,1559.626,110.352,1660.454,159.777,1745.318C208.795,1829.483,282.185,1904.873,379.569,1906.608" fill="rgba(109, 113, 249, 0.1450980392156863)" class="triangle-float2"></path><path d="M2049.6,428.431C2166.856,435.206,2267.691,350.701,2324.265,247.772C2378.691,148.75,2376.653,30.8,2322.731,-68.498C2266.051,-172.874,2168.354,-255.896,2049.6,-258.029C1927.585,-260.221,1810.935,-189.024,1758.926,-78.626C1712.522,19.876,1770.756,124.456,1824.908,218.92C1879.494,314.142,1940.025,422.1,2049.6,428.431" fill="rgba(109, 113, 249, 0.1450980392156863)" class="triangle-float2"></path></g><defs><mask id="SvgjsMask1069"><rect width="3000" height="2000" fill="#ffffff"></rect></mask><style>
            @keyframes float1 {
                0%{transform: translate(0, 0)}
                50%{transform: translate(-10px, 0)}
                100%{transform: translate(0, 0)}
            }

            .triangle-float1 {
                animation: float1 5s infinite;
            }

            @keyframes float2 {
                0%{transform: translate(0, 0)}
                50%{transform: translate(-5px, -5px)}
                100%{transform: translate(0, 0)}
            }

            .triangle-float2 {
                animation: float2 4s infinite;
            }

            @keyframes float3 {
                0%{transform: translate(0, 0)}
                50%{transform: translate(0, -10px)}
                100%{transform: translate(0, 0)}
            }

            .triangle-float3 {
                animation: float3 6s infinite;
            }
        </style></defs></svg>