<svg xmlns="http://www.w3.org/2000/svg" version="1.1" xmlns:xlink="http://www.w3.org/1999/xlink" xmlns:svgjs="http://svgjs.com/svgjs" width="2640" height="1440" preserveAspectRatio="none" viewBox="0 0 2640 1440"><g mask="url(&quot;#SvgjsMask1209&quot;)" fill="none"><path d="M1453.241,1196.263C1532.003,1198.306,1603.076,1152.873,1643.946,1085.515C1686.518,1015.352,1702.213,926.407,1659.5,856.329C1618.111,788.423,1532.665,768.627,1453.241,772.628C1381.387,776.248,1315.926,813.058,1280.088,875.442C1244.387,937.588,1244.895,1012.976,1278.936,1076.047C1314.866,1142.618,1377.618,1194.301,1453.241,1196.263" fill="rgba(109, 113, 249, 0.05)" class="triangle-float3"></path><path d="M297.799,485.169C344.626,482.556,378.744,446.341,402.395,405.841C426.312,364.885,444.172,315.707,420.892,274.385C397.306,232.52,345.822,218.524,297.799,220.181C252.921,221.729,212.777,244.566,188.586,282.398C162.119,323.79,147.523,375.508,170.82,418.763C195.096,463.835,246.685,488.021,297.799,485.169" fill="rgba(109, 113, 249, 0.05)" class="triangle-float2"></path><path d="M1665.124,287.437C1724.885,284.028,1772.105,241.983,1801.18,189.661C1829.303,139.053,1835.471,79.507,1809.397,27.813C1780.411,-29.655,1729.486,-79.567,1665.124,-80.085C1600.081,-80.608,1549.328,-30.854,1516.775,25.459C1484.185,81.836,1467.152,150.218,1499.239,206.883C1531.703,264.212,1599.348,291.189,1665.124,287.437" fill="rgba(109, 113, 249, 0.05)" class="triangle-float3"></path><path d="M1641.698,922.537C1795.917,925.88,1927.191,814.973,1997.217,677.528C2061.131,552.079,2043.241,402.798,1966.702,284.628C1896.685,176.527,1770.275,136.121,1641.698,128.635C1494.08,120.04,1321.487,116.727,1243.793,242.539C1163.897,371.918,1235.112,531.431,1311.909,662.673C1387.668,792.141,1491.728,919.286,1641.698,922.537" fill="rgba(109, 113, 249, 0.05)" class="triangle-float3"></path><path d="M1450.561,1049.974C1550.408,1054.079,1649.041,1014.39,1703.527,930.619C1763.24,838.812,1783.902,718.542,1726.988,624.974C1671.735,534.136,1556.873,516.213,1450.561,514.731C1340.666,513.199,1213.655,520.904,1160.452,617.075C1108.133,711.648,1171.06,821.417,1231.228,911.2C1282.849,988.229,1357.912,1046.165,1450.561,1049.974" fill="rgba(109, 113, 249, 0.05)" class="triangle-float1"></path><path d="M2253.132,591.708C2352.436,586.678,2428.211,513.859,2478.093,427.846C2528.185,341.471,2560.13,236.009,2509.234,150.105C2459.036,65.379,2351.448,42.47,2253.132,48.148C2165.401,53.215,2092.158,103.748,2043.608,176.996C1987.945,260.976,1939.471,362.901,1984.904,452.827C2033.566,549.144,2145.358,597.167,2253.132,591.708" fill="rgba(109, 113, 249, 0.05)" class="triangle-float1"></path><path d="M2413.058,501.528C2502.263,507.638,2594.883,469.197,2637.365,390.52C2678.288,314.731,2648.682,224.298,2601.744,152.079C2559.543,87.149,2490.495,45.992,2413.058,45.4C2334.54,44.8,2257.487,80.542,2219.312,149.157C2182.041,216.146,2199.39,295.879,2236.325,363.053C2274.973,433.343,2333.031,496.047,2413.058,501.528" fill="rgba(109, 113, 249, 0.05)" class="triangle-float3"></path><path d="M1039.3,1332.205C1114.09,1329.835,1175.523,1284.852,1218.305,1223.461C1270.48,1148.591,1325.221,1060.014,1286.603,977.332C1243.851,885.798,1140.263,836.629,1039.3,840.205C943.87,843.585,863.663,908.616,820.585,993.837C781.522,1071.115,792.497,1162.745,839.502,1235.466C882.554,1302.071,960.032,1334.717,1039.3,1332.205" fill="rgba(109, 113, 249, 0.05)" class="triangle-float1"></path><path d="M340.377,384.714C408.16,385.322,487.258,384.136,520.491,325.056C553.398,266.556,510.965,200.076,476.704,142.359C443.495,86.414,405.41,23.454,340.377,21.626C273.297,19.74,223.83,76.291,190.096,134.302C156.127,192.716,131.007,263.932,165.779,321.872C199.893,378.716,274.085,384.119,340.377,384.714" fill="rgba(109, 113, 249, 0.05)" class="triangle-float1"></path><path d="M2724.924,938.293C2852.906,936.72,2957.618,855.176,3029.083,748.994C3112.671,624.8,3193.902,475.202,3126.61,341.474C3054.768,198.704,2884.566,136.862,2724.924,144.548C2577.957,151.624,2452.805,246.554,2385.073,377.174C2322.557,497.734,2337.177,640.474,2407.531,756.634C2475.216,868.388,2594.281,939.899,2724.924,938.293" fill="rgba(109, 113, 249, 0.05)" class="triangle-float1"></path><path d="M251.556,1060.455C354.551,1065.323,444.043,991.545,491.432,899.97C535.202,815.387,523.664,714.222,472.192,634.093C424.798,560.312,339.217,524.209,251.556,526.542C168.116,528.763,92.112,573.04,50.365,645.32C8.606,717.621,11.568,803.876,47.982,879.011C90.472,966.683,154.239,1055.855,251.556,1060.455" fill="rgba(109, 113, 249, 0.05)" class="triangle-float1"></path><path d="M886.716,723.997C928.036,720.739,958.834,690.081,979.238,654.003C999.251,618.615,1009.987,576.35,990.349,540.753C970.145,504.13,928.518,487.7,886.716,486.29C841.859,484.777,794.941,495.864,770.225,533.329C743.14,574.385,739.287,628.927,764.93,670.898C789.677,711.403,839.397,727.728,886.716,723.997" fill="rgba(109, 113, 249, 0.05)" class="triangle-float1"></path></g><defs><mask id="SvgjsMask1209"><rect width="2640" height="1440" fill="#ffffff"></rect></mask><style>
            @keyframes float1 {
                0%{transform: translate(0, 0)}
                50%{transform: translate(-10px, 0)}
                100%{transform: translate(0, 0)}
            }

            .triangle-float1 {
                animation: float1 5s infinite;
            }

            @keyframes float2 {
                0%{transform: translate(0, 0)}
                50%{transform: translate(-5px, -5px)}
                100%{transform: translate(0, 0)}
            }

            .triangle-float2 {
                animation: float2 4s infinite;
            }

            @keyframes float3 {
                0%{transform: translate(0, 0)}
                50%{transform: translate(0, -10px)}
                100%{transform: translate(0, 0)}
            }

            .triangle-float3 {
                animation: float3 6s infinite;
            }
        </style></defs></svg>