<svg xmlns="http://www.w3.org/2000/svg" version="1.1" xmlns:xlink="http://www.w3.org/1999/xlink" xmlns:svgjs="http://svgjs.com/svgjs" width="1920" height="1080" preserveAspectRatio="none" viewBox="0 0 1920 1080"><g mask="url(&quot;#SvgjsMask1025&quot;)" fill="none"><path d="M79.036,407.503C144.201,412.261,210.174,382.913,242.947,326.389C275.811,269.709,268.191,198.074,232.214,143.317C199.462,93.468,138.682,76.721,79.036,76.915C19.809,77.108,-43.607,92.565,-72.425,144.308C-100.702,195.08,-77.061,254.771,-48.074,305.141C-18.992,355.677,20.885,403.257,79.036,407.503" fill="rgba(109, 113, 249, 0.1450980392156863)" class="triangle-float1"></path><path d="M1014.222,281.92C1067.989,283.742,1113.84,243.332,1137.037,194.792C1157.437,152.105,1142.335,104.548,1118.522,63.667C1094.916,23.141,1060.979,-12.39,1014.222,-16.05C960.827,-20.229,902.581,-2.387,877.207,44.779C852.69,90.352,879.135,142.122,905.024,186.93C930.892,231.702,962.544,280.169,1014.222,281.92" fill="rgba(109, 113, 249, 0.1450980392156863)" class="triangle-float2"></path><path d="M119.522,831.294C155.588,832.779,186.554,808.74,205.288,777.885C224.866,745.64,235.312,705.065,215.743,672.815C196.685,641.407,156.259,636.791,119.522,636.546C82.189,636.297,39.084,638.827,21.048,671.515C3.33,703.626,25.932,740.071,45.174,771.293C63.083,800.351,85.418,829.89,119.522,831.294" fill="rgba(109, 113, 249, 0.1450980392156863)" class="triangle-float3"></path><path d="M1684.162,995.049C1770.223,991.997,1847.802,945.277,1890.537,870.514C1932.943,796.326,1931.442,707.17,1892.062,631.332C1849.044,548.489,1777.5,474.318,1684.162,473.079C1589.192,471.818,1513.201,542.992,1466.476,625.682C1420.62,706.833,1403.448,805.807,1450.774,886.11C1497.495,965.385,1592.202,998.31,1684.162,995.049" fill="rgba(109, 113, 249, 0.1450980392156863)" class="triangle-float2"></path><path d="M552.67,433.363C630.502,430.116,683.904,363.299,721.048,294.825C756.053,230.294,770.04,156.578,738.866,90.111C702.181,11.895,639.062,-64.167,552.67,-64.18C466.264,-64.193,406.252,13.4,366.38,90.057C330.1,159.809,320.564,240.863,358.063,309.968C397.327,382.326,470.417,436.794,552.67,433.363" fill="rgba(109, 113, 249, 0.1450980392156863)" class="triangle-float1"></path><path d="M986.645,170.296C1035.112,171.261,1068.319,126.773,1091.536,84.218C1113.53,43.905,1125.673,-3.59,1103.436,-43.77C1080.598,-85.035,1033.778,-103.637,986.645,-105.308C935.873,-107.108,878.29,-97.521,854.577,-52.591C831.715,-9.274,863.782,38.041,888.75,80.179C912.983,121.076,939.117,169.349,986.645,170.296" fill="rgba(109, 113, 249, 0.1450980392156863)" class="triangle-float1"></path><path d="M117.32,1349.308C206.827,1354.837,298.354,1319.41,344.474,1242.501C391.753,1163.66,384.825,1062.968,335.581,985.34C289.561,912.795,203.226,885.255,117.32,884.419C29.6,883.566,-66.104,904.18,-108.423,981.021C-149.773,1056.103,-110.722,1144.071,-65.927,1217.151C-23.745,1285.969,36.757,1344.332,117.32,1349.308" fill="rgba(109, 113, 249, 0.1450980392156863)" class="triangle-float3"></path><path d="M121.389,1022.425C176.917,1025.797,234.769,1008.925,264.986,962.217C297.643,911.738,300.213,845.476,269.176,793.985C239.016,743.949,179.787,722.281,121.389,723.984C66.114,725.596,13.432,753.183,-12.183,802.192C-36.224,848.191,-21.791,902.056,5.125,946.435C30.858,988.863,71.858,1019.417,121.389,1022.425" fill="rgba(109, 113, 249, 0.1450980392156863)" class="triangle-float3"></path><path d="M1224.637,921.224C1307.861,919.956,1391.348,893.245,1435.85,822.907C1483.384,747.777,1489.962,650.42,1444.197,574.2C1399.591,499.91,1311.18,466.773,1224.637,471.136C1145.494,475.126,1082.163,527.25,1040.343,594.56C995.456,666.806,960.178,755.44,1001.971,829.519C1044.245,904.45,1138.614,922.535,1224.637,921.224" fill="rgba(109, 113, 249, 0.1450980392156863)" class="triangle-float3"></path><path d="M1547.927,1227.461C1659.28,1229.788,1775.737,1202.253,1836.165,1108.694C1901.302,1007.845,1909.766,871.561,1841.652,772.698C1779.819,682.951,1656.516,681.053,1547.927,690.334C1458.287,697.995,1379.466,741.316,1329.953,816.432C1273.901,901.468,1232.11,1007.09,1279.827,1097.068C1329.728,1191.166,1441.439,1225.236,1547.927,1227.461" fill="rgba(109, 113, 249, 0.1450980392156863)" class="triangle-float2"></path><path d="M1897.297,1212.712C1996.139,1220.017,2105.457,1190.253,2151.989,1102.743C2196.801,1018.469,2140.623,925.405,2094.506,841.838C2045.946,753.845,1997.623,647.192,1897.297,641.228C1790.761,634.895,1699.409,718.739,1654.819,815.702C1616.348,899.359,1652.414,990.788,1700.409,1069.37C1745.76,1143.624,1810.526,1206.299,1897.297,1212.712" fill="rgba(109, 113, 249, 0.1450980392156863)" class="triangle-float2"></path><path d="M788.473,1364.203C870.276,1366.333,960.421,1345.08,998.407,1272.6C1034.779,1203.2,992.234,1124.005,948.393,1059.065C910.959,1003.615,855.322,964.325,788.473,961.633C716.362,958.73,643.407,984.389,604.577,1045.222C562.853,1110.589,557.929,1194.955,596.661,1262.138C635.432,1329.388,710.873,1362.182,788.473,1364.203" fill="rgba(109, 113, 249, 0.1450980392156863)" class="triangle-float2"></path></g><defs><mask id="SvgjsMask1025"><rect width="1920" height="1080" fill="#ffffff"></rect></mask><style>
            @keyframes float1 {
                0%{transform: translate(0, 0)}
                50%{transform: translate(-10px, 0)}
                100%{transform: translate(0, 0)}
            }

            .triangle-float1 {
                animation: float1 5s infinite;
            }

            @keyframes float2 {
                0%{transform: translate(0, 0)}
                50%{transform: translate(-5px, -5px)}
                100%{transform: translate(0, 0)}
            }

            .triangle-float2 {
                animation: float2 4s infinite;
            }

            @keyframes float3 {
                0%{transform: translate(0, 0)}
                50%{transform: translate(0, -10px)}
                100%{transform: translate(0, 0)}
            }

            .triangle-float3 {
                animation: float3 6s infinite;
            }
        </style></defs></svg>