<svg xmlns="http://www.w3.org/2000/svg" version="1.1" xmlns:xlink="http://www.w3.org/1999/xlink" xmlns:svgjs="http://svgjs.com/svgjs" width="1920" height="1080" preserveAspectRatio="none" viewBox="0 0 1920 1080"><g mask="url(&quot;#SvgjsMask1115&quot;)" fill="none"><path d="M34.895,107.274C74.512,108.291,112.801,89.063,132.581,54.722C152.329,20.438,147.84,-21.214,128.916,-55.96C109.02,-92.49,76.482,-125.547,34.895,-124.633C-5.624,-123.742,-33.758,-88.053,-52.228,-51.977C-68.822,-19.565,-71.951,17.975,-54.475,49.92C-36.267,83.203,-3.031,106.3,34.895,107.274" fill="rgba(109, 113, 249, 0.1450980392156863)" class="triangle-float3"></path><path d="M1767.429,806.479C1811.925,809.631,1857.041,786.41,1876.928,746.48C1895.298,709.594,1874.23,669.181,1853.563,633.531C1832.988,598.04,1808.453,557.556,1767.429,557.594C1726.441,557.632,1699.569,596.866,1681.571,633.691C1666.044,665.459,1666.13,700.996,1681.864,732.661C1699.83,768.816,1727.157,803.626,1767.429,806.479" fill="rgba(109, 113, 249, 0.1450980392156863)" class="triangle-float1"></path><path d="M616.589,922.37C723.722,925.286,845.787,918.24,900.746,826.232C956.563,732.788,909.048,619.002,853.83,525.202C799.672,433.203,723.238,348.298,616.589,343.526C502.624,338.427,394.66,402.338,339.485,502.187C285.949,599.07,297.075,719.055,358.015,811.461C413.355,895.375,516.107,919.635,616.589,922.37" fill="rgba(109, 113, 249, 0.1450980392156863)" class="triangle-float2"></path><path d="M1992.844,456.33C2083.951,452.941,2159.477,397.692,2209.477,321.456C2266.164,235.024,2316.405,128.882,2267.236,37.962C2216.536,-55.79,2099.212,-85.894,1992.844,-79.129C1898.219,-73.111,1821.083,-12.263,1772.908,69.403C1723.791,152.665,1698.605,254.639,1746.376,338.681C1794.593,423.507,1895.339,459.957,1992.844,456.33" fill="rgba(109, 113, 249, 0.1450980392156863)" class="triangle-float1"></path><path d="M1352.363,617.813C1427.075,619.684,1495.236,574.63,1531.039,509.029C1565.425,446.025,1555.456,371.465,1521.254,308.361C1485.075,241.609,1428.289,179.596,1352.363,179.365C1276.15,179.133,1216.318,239.44,1181.682,307.328C1150.306,368.826,1155.286,439.949,1188.545,500.45C1223.228,563.541,1280.39,616.01,1352.363,617.813" fill="rgba(109, 113, 249, 0.1450980392156863)" class="triangle-float2"></path><path d="M865.2,1368.15C958.411,1363.414,1045.408,1322.16,1094.333,1242.68C1145.822,1159.034,1156.15,1055.686,1111.345,968.278C1062.351,872.698,972.578,793.288,865.2,795.675C760.775,797.996,689.61,888.403,637.308,978.816C584.902,1069.408,538.98,1177.887,591.849,1268.209C644.376,1357.947,761.353,1373.426,865.2,1368.15" fill="rgba(109, 113, 249, 0.1450980392156863)" class="triangle-float2"></path><path d="M1491.818,485.995C1539.7,486.655,1592.215,483.351,1618.992,443.65C1648.41,400.034,1649.801,339.542,1619.699,296.394C1592.595,257.543,1539.052,257.754,1491.818,261.359C1452.245,264.379,1416.066,280.782,1393.798,313.634C1367.998,351.696,1347.843,400.255,1370.574,440.226C1393.462,480.473,1445.522,485.357,1491.818,485.995" fill="rgba(109, 113, 249, 0.1450980392156863)" class="triangle-float3"></path><path d="M205.728,1211.455C263.961,1211.094,310.944,1166.326,336.319,1113.911C358.614,1067.859,348.525,1015.135,321.932,971.424C296.532,929.675,254.597,899.19,205.728,899.262C156.973,899.333,115.71,930.268,90.112,971.763C62.935,1015.817,49.814,1068.926,72.302,1115.548C97.807,1168.424,147.023,1211.819,205.728,1211.455" fill="rgba(109, 113, 249, 0.1450980392156863)" class="triangle-float3"></path><path d="M212.89,377.191C239.621,377.921,268.35,371.749,282.168,348.855C296.342,325.371,291.288,295.212,276.192,272.31C262.538,251.595,237.671,244.947,212.89,243.753C185.068,242.413,152.759,241.994,138.065,265.657C122.902,290.076,133.856,321.372,149.87,345.242C163.933,366.205,187.656,376.502,212.89,377.191" fill="rgba(109, 113, 249, 0.1450980392156863)" class="triangle-float3"></path><path d="M1624.55,1271.19C1731.654,1271.337,1825.526,1204.597,1878.146,1111.31C1929.811,1019.716,1935.574,906.717,1880.757,816.975C1828.003,730.609,1725.649,691.554,1624.55,696.142C1531.36,700.371,1454.2,758.857,1405.682,838.533C1354.743,922.185,1327.947,1023.22,1372.157,1110.615C1420.399,1205.98,1517.677,1271.043,1624.55,1271.19" fill="rgba(109, 113, 249, 0.1450980392156863)" class="triangle-float2"></path><path d="M371.943,527.563C450.392,533.032,537.787,520.681,579.38,453.942C622.702,384.429,602.7,295.506,560.205,225.485C519.473,158.368,450.426,110.074,371.943,112.134C296.497,114.115,234.612,167.842,200.057,234.939C168.42,296.371,174.205,368.554,209.203,428.136C243.712,486.885,303.974,522.825,371.943,527.563" fill="rgba(109, 113, 249, 0.1450980392156863)" class="triangle-float2"></path></g><defs><mask id="SvgjsMask1115"><rect width="1920" height="1080" fill="#ffffff"></rect></mask><style>
            @keyframes float1 {
                0%{transform: translate(0, 0)}
                50%{transform: translate(-10px, 0)}
                100%{transform: translate(0, 0)}
            }

            .triangle-float1 {
                animation: float1 5s infinite;
            }

            @keyframes float2 {
                0%{transform: translate(0, 0)}
                50%{transform: translate(-5px, -5px)}
                100%{transform: translate(0, 0)}
            }

            .triangle-float2 {
                animation: float2 4s infinite;
            }

            @keyframes float3 {
                0%{transform: translate(0, 0)}
                50%{transform: translate(0, -10px)}
                100%{transform: translate(0, 0)}
            }


            .triangle-float3 {
                animation: float3 6s infinite;
            }
        </style></defs></svg>