<svg width="60" height="52" viewBox="0 0 60 52" fill="none" xmlns="http://www.w3.org/2000/svg">
<path d="M23.4979 0C25.6485 0 27.7085 0.865843 29.2133 2.40224L57.7153 31.5029C59.1798 32.9981 60 35.0077 60 37.1007V44.2674C60 48.538 56.538 52 52.2674 52C47.9969 52 44.5349 48.538 44.5349 44.2674V43.6304C44.5349 41.5375 43.7147 39.5279 42.2502 38.0327L21.5005 16.847C20.8383 16.1709 19.9318 15.7899 18.9855 15.7899C17.0413 15.7899 15.4651 17.366 15.4651 19.3103V44.2674C15.4651 48.538 12.0031 52 7.73257 52C3.46199 52 0 48.538 0 44.2674V8C0 3.58172 3.58172 0 8 0H23.4979ZM52.2674 18.0457C47.9969 18.0457 44.5349 14.5837 44.5349 10.3131V7.73257C44.5349 3.46199 47.9969 0 52.2674 0C56.538 0 60 3.46199 60 7.73257V10.3131C60 14.5837 56.538 18.0457 52.2674 18.0457Z" fill="#272848"/>
</svg>
