<svg xmlns="http://www.w3.org/2000/svg" version="1.1" xmlns:xlink="http://www.w3.org/1999/xlink" xmlns:svgjs="http://svgjs.com/svgjs" width="2640" height="1440" preserveAspectRatio="none" viewBox="0 0 2640 1440"><g mask="url(&quot;#SvgjsMask1192&quot;)" fill="none"><path d="M245.592,600.158C302.626,599.954,365.725,596.936,396.863,549.152C430.2,497.994,420.854,431.133,390.117,378.373C359.604,325.997,306.147,286.778,245.592,289.495C188.62,292.051,150.793,341.233,121.91,390.407C92.502,440.474,62.945,500.221,92.438,550.238C121.67,599.811,188.042,600.363,245.592,600.158" fill="rgba(109, 113, 249, 0.075)" class="triangle-float2"></path><path d="M1012.01,1018.243C1068.646,1020.498,1125.724,997.286,1154.482,948.442C1183.612,898.966,1177.883,836.684,1147.64,787.88C1118.973,741.618,1066.422,717.402,1012.01,718.525C959.597,719.607,911.563,747.661,885.746,793.287C860.313,838.235,862.643,892.792,887.921,937.828C913.778,983.895,959.224,1016.141,1012.01,1018.243" fill="rgba(109, 113, 249, 0.075)" class="triangle-float3"></path><path d="M392.713,500.456C494.484,503.55,606.723,497.305,663.992,413.12C727.175,320.242,728.278,192.203,666.015,98.705C608.85,12.863,495.828,3.776,392.713,5.752C294.218,7.639,189.075,25.238,136.966,108.841C82.382,196.416,92.15,311.049,148.574,397.45C200.337,476.713,298.089,497.579,392.713,500.456" fill="rgba(109, 113, 249, 0.075)" class="triangle-float1"></path><path d="M639.254,701.279C755.643,694.28,858.639,628.485,914.722,526.26C968.679,427.91,960.821,311.044,907.493,212.351C851.081,107.949,757.917,15.388,639.254,16.455C521.922,17.51,441.137,117.415,379.239,217.098C312.304,324.893,239.696,451.457,299.728,563.244C361.679,678.604,508.548,709.139,639.254,701.279" fill="rgba(109, 113, 249, 0.075)" class="triangle-float3"></path><path d="M1914.921,805.986C2068.398,809.753,2219.652,731.848,2289.293,595.029C2354.032,467.841,2298.188,322.31,2222.79,201.136C2152.686,88.471,2047.597,-4.399,1914.921,-6.633C1778.728,-8.927,1657.656,73.075,1588.551,190.455C1518.345,309.705,1506.259,455.14,1571.084,577.399C1640.185,707.723,1767.455,802.366,1914.921,805.986" fill="rgba(109, 113, 249, 0.075)" class="triangle-float2"></path><path d="M1934.362,1616.025C2083.964,1613.326,2240.646,1572.009,2315.514,1442.461C2390.425,1312.838,2349.689,1155.482,2275.748,1025.303C2200.678,893.137,2086.261,776.887,1934.362,771.409C1774.098,765.629,1629.188,861.044,1547.482,999.037C1464.114,1139.837,1441.694,1318.026,1528.622,1456.656C1611.357,1588.6,1778.649,1618.834,1934.362,1616.025" fill="rgba(109, 113, 249, 0.075)" class="triangle-float1"></path><path d="M958.993,897.239C1108.367,892.56,1186.899,735.379,1256.399,603.076C1319.262,483.408,1374.25,347.635,1310.253,228.569C1243.584,104.534,1099.676,43.62,958.993,49.76C828.281,55.465,722.629,143.827,657.108,257.075C591.464,370.535,571.556,504.217,627.466,622.776C693.051,761.853,805.303,902.053,958.993,897.239" fill="rgba(109, 113, 249, 0.075)" class="triangle-float1"></path><path d="M575.71,1625.267C728.092,1625.58,838.282,1496.376,912.138,1363.088C983.214,1234.817,1025.556,1078.35,947.581,954.151C872.937,835.258,716.065,824.423,575.71,827.224C441.877,829.894,299.628,854.981,228.684,968.495C154.191,1087.689,176.005,1237.433,241.67,1361.709C312.687,1496.114,423.696,1624.954,575.71,1625.267" fill="rgba(109, 113, 249, 0.075)" class="triangle-float1"></path><path d="M303.848,855.705C351.827,857.209,405.256,847.782,428.619,805.848C451.598,764.602,426.721,717.378,403.959,676.012C379.96,632.398,353.601,580.75,303.848,579.095C252.479,577.386,214.857,623.163,191.496,668.944C170.47,710.15,168.082,758.788,191.929,798.428C215.083,836.917,258.953,854.298,303.848,855.705" fill="rgba(109, 113, 249, 0.075)" class="triangle-float3"></path><path d="M1749.911,147.387C1808.152,150.372,1867.427,122.56,1893.973,70.635C1918.814,22.046,1893.054,-32.169,1865.911,-79.511C1838.565,-127.206,1804.881,-179.677,1749.911,-180.629C1693.912,-181.598,1652.077,-133.6,1626.741,-83.651C1603.994,-38.806,1605.685,12.7,1629.341,57.072C1654.66,104.565,1696.162,144.632,1749.911,147.387" fill="rgba(109, 113, 249, 0.075)" class="triangle-float3"></path><path d="M2040.534,1277.025C2092.662,1276.798,2139.371,1250.296,2168.625,1207.151C2202.62,1157.013,2230.481,1093.475,2200.788,1040.675C2170.742,987.246,2101.822,978.266,2040.534,979.379C1981.703,980.447,1919.117,995.156,1890.052,1046.317C1861.243,1097.027,1878.632,1159.427,1910.494,1208.276C1939.204,1252.292,1987.982,1277.254,2040.534,1277.025" fill="rgba(109, 113, 249, 0.075)" class="triangle-float3"></path><path d="M589.772,1799.717C708.936,1790.337,778.733,1677.692,835.218,1572.347C887.544,1474.758,931.656,1361.114,876.401,1265.153C821.069,1169.058,700.599,1149.722,589.772,1146.083C469.746,1142.142,336.488,1146.151,268.578,1245.197C193.445,1354.778,200.239,1502.116,266.833,1617.087C333.268,1731.782,457.635,1810.118,589.772,1799.717" fill="rgba(109, 113, 249, 0.075)" class="triangle-float1"></path></g><defs><mask id="SvgjsMask1192"><rect width="2640" height="1440" fill="#ffffff"></rect></mask><style>
            @keyframes float1 {
                0%{transform: translate(0, 0)}
                50%{transform: translate(-10px, 0)}
                100%{transform: translate(0, 0)}
            }

            .triangle-float1 {
                animation: float1 4s infinite;
            }

            @keyframes float2 {
                0%{transform: translate(0, 0)}
                50%{transform: translate(-20px, -20px)}
                100%{transform: translate(0, 0)}
            }

            .triangle-float2 {
                animation: float2 5s infinite;
            }

            @keyframes float3 {
                0%{transform: translate(0, 0)}
                50%{transform: translate(0, -15px)}
                100%{transform: translate(0, 0)}
            }

            .triangle-float3 {
                animation: float3 6s infinite;
            }
        </style></defs></svg>