<svg xmlns="http://www.w3.org/2000/svg" version="1.1" xmlns:xlink="http://www.w3.org/1999/xlink" xmlns:svgjs="http://svgjs.com/svgjs" width="2640" height="1440" preserveAspectRatio="none" viewBox="0 0 2640 1440"><g mask="url(&quot;#SvgjsMask1185&quot;)" fill="none"><path d="M1309.577,1560.866C1389.241,1565.176,1473.817,1550.2,1519.542,1484.823C1571.906,1409.954,1589.011,1307.719,1540.992,1229.992C1494.698,1155.057,1397.659,1145.001,1309.577,1144.957C1221.39,1144.913,1119.981,1152.337,1077.765,1229.763C1036.493,1305.457,1086.147,1393.423,1135.594,1464.049C1176.391,1522.321,1238.547,1557.023,1309.577,1560.866" fill="rgba(109, 113, 249, 0.075)" class="triangle-float2"></path><path d="M621.16,1057.391C692.202,1052.593,747.075,1002.163,782.518,940.407C817.768,878.988,836.896,804.462,801.537,743.106C766.14,681.685,692.029,658.655,621.16,660.414C553.656,662.09,493.239,695.594,455.656,751.693C412.533,816.061,380.158,896.958,417.045,965.092C455.148,1035.471,541.31,1062.784,621.16,1057.391" fill="rgba(109, 113, 249, 0.075)" class="triangle-float1"></path><path d="M2193.018,1011.318C2250.533,1009.968,2301.504,981.214,2334.209,933.883C2373.118,877.574,2410.915,805.585,2375.751,746.865C2341.037,688.897,2260.368,692.692,2193.018,698.113C2137.154,702.61,2084.916,725.29,2055.004,772.685C2022.819,823.681,2009.664,888.594,2039.855,940.795C2070.015,992.944,2132.793,1012.732,2193.018,1011.318" fill="rgba(109, 113, 249, 0.075)" class="triangle-float3"></path><path d="M1856.904,479.281C1917.484,482.612,1977.767,449.198,2004.061,394.521C2027.911,344.927,1997.721,291.803,1969.897,244.324C1942.532,197.628,1911.028,143.389,1856.904,143.412C1802.801,143.435,1768.824,196.308,1744.076,244.419C1721.915,287.502,1714.358,336.076,1735.338,379.747C1759.645,430.343,1800.857,476.2,1856.904,479.281" fill="rgba(109, 113, 249, 0.075)" class="triangle-float3"></path><path d="M2115.07,1712.052C2204.494,1713.335,2278.332,1648.227,2320.889,1569.568C2361.271,1494.929,2360.326,1407.063,2320.673,1332.034C2277.999,1251.289,2206.39,1181.303,2115.07,1180.13C2022.141,1178.936,1942.363,1243.855,1900.111,1326.632C1861.463,1402.349,1877.821,1489.564,1919.229,1563.808C1961.972,1640.446,2027.327,1710.794,2115.07,1712.052" fill="rgba(109, 113, 249, 0.075)" class="triangle-float2"></path><path d="M344.529,461.692C399.759,460.031,437.381,411.73,463.75,363.173C488.619,317.378,500.395,264.429,476.919,217.904C451.063,166.663,401.923,126.542,344.529,126.902C287.63,127.259,242.121,169.536,214.981,219.546C189.212,267.029,186.717,323.103,212.202,370.739C239.263,421.321,287.189,463.417,344.529,461.692" fill="rgba(109, 113, 249, 0.075)" class="triangle-float2"></path><path d="M2476.392,1818.161C2580.894,1811.214,2655.177,1725.851,2703.695,1633.034C2748.075,1548.133,2755.343,1451.109,2713.244,1365.054C2664.912,1266.26,2586.374,1168.896,2476.392,1168.405C2365.872,1167.912,2290.891,1267.084,2235.848,1362.923C2181.097,1458.254,2138.57,1569.989,2189.93,1667.189C2243.976,1769.474,2360.961,1825.835,2476.392,1818.161" fill="rgba(109, 113, 249, 0.075)" class="triangle-float3"></path><path d="M189.084,1676.595C297.7,1673.076,370.9,1575.713,420.254,1478.893C464.337,1392.413,469.751,1295.087,428.297,1207.317C378.929,1102.792,304.669,991.133,189.084,989.446C71.844,987.735,-9.112,1095.78,-62.538,1200.153C-110.511,1293.873,-118.743,1401.666,-69.575,1494.764C-16.823,1594.649,76.184,1680.253,189.084,1676.595" fill="rgba(109, 113, 249, 0.075)" class="triangle-float1"></path><path d="M1441.51,1556.245C1597.175,1563.342,1749.192,1486.141,1826.187,1350.665C1902.369,1216.618,1889.419,1047.579,1803.269,919.71C1725.834,804.777,1580.063,776.734,1441.51,779.706C1309.399,782.54,1174.472,821.858,1105.671,934.675C1034.324,1051.667,1047.997,1197.599,1113.136,1318.158C1182.019,1445.647,1296.752,1549.646,1441.51,1556.245" fill="rgba(109, 113, 249, 0.075)" class="triangle-float3"></path><path d="M957.644,620.959C1044.927,624.08,1129.409,579.937,1172.209,503.804C1214.246,429.027,1200.696,338.651,1158.259,264.1C1115.3,188.632,1044.48,127.433,957.644,126.865C869.971,126.292,793.056,183.75,752.431,261.445C714.614,333.771,727.649,418.472,768.109,489.353C808.976,560.948,875.259,618.013,957.644,620.959" fill="rgba(109, 113, 249, 0.075)" class="triangle-float1"></path><path d="M14.561,578.184C53.359,577.831,83.105,548.544,103.101,515.293C123.9,480.706,138.454,439.216,119.589,403.537C99.736,365.989,57.02,346.751,14.561,347.837C-26.068,348.876,-62.236,372.925,-81.558,408.68C-99.962,442.737,-95.913,483.257,-76.817,516.932C-57.43,551.12,-24.739,578.542,14.561,578.184" fill="rgba(109, 113, 249, 0.075)" class="triangle-float3"></path><path d="M939.483,805.673C995.889,805.916,1045.18,771.453,1073.957,722.939C1103.391,673.318,1109.988,613.362,1084.158,561.773C1055.337,504.209,1003.778,457.577,939.483,454.356C869.907,450.871,798.243,483.478,767.32,545.902C738.726,603.625,771.418,668.092,807.004,721.787C837.952,768.483,883.464,805.431,939.483,805.673" fill="rgba(109, 113, 249, 0.075)" class="triangle-float2"></path></g><defs><mask id="SvgjsMask1185"><rect width="2640" height="1440" fill="#ffffff"></rect></mask><style>
            @keyframes float1 {
                0%{transform: translate(0, 0)}
                50%{transform: translate(-10px, 0)}
                100%{transform: translate(0, 0)}
            }

            .triangle-float1 {
                animation: float1 5s infinite;
            }

            @keyframes float2 {
                0%{transform: translate(0, 0)}
                50%{transform: translate(-5px, -5px)}
                100%{transform: translate(0, 0)}
            }

            .triangle-float2 {
                animation: float2 4s infinite;
            }

            @keyframes float3 {
                0%{transform: translate(0, 0)}
                50%{transform: translate(0, -10px)}
                100%{transform: translate(0, 0)}
            }

            .triangle-float3 {
                animation: float3 6s infinite;
            }
        </style></defs></svg>