<svg xmlns="http://www.w3.org/2000/svg" version="1.1" xmlns:xlink="http://www.w3.org/1999/xlink" xmlns:svgjs="http://svgjs.com/svgjs" width="2640" height="1440" preserveAspectRatio="none" viewBox="0 0 2640 1440"><g mask="url(&quot;#SvgjsMask1197&quot;)" fill="none"><path d="M564.686,1525.032C719.401,1524.504,883.161,1486.479,962.348,1353.564C1043.014,1218.167,1008.61,1049.657,928.905,913.692C850.247,779.514,720.195,677.994,564.686,675.215C404.622,672.354,258.63,762.425,177.197,900.257C94.277,1040.606,76.376,1217.762,162.295,1356.295C244.459,1488.773,408.798,1525.564,564.686,1525.032" fill="rgba(109, 113, 249, 0.075)" class="triangle-float1"></path><path d="M711.889,1495.991C811.92,1491.673,871.733,1396.618,921.082,1309.5C969.435,1224.141,1015.839,1126.409,970.533,1039.394C922.647,947.424,815.553,905.41,711.889,907.723C612.328,909.944,522.247,964.24,472.49,1050.505C422.771,1136.705,421.787,1241.361,468.892,1329.017C518.754,1421.803,606.652,1500.533,711.889,1495.991" fill="rgba(109, 113, 249, 0.075)" class="triangle-float2"></path><path d="M2283.342,1129.163C2368.862,1130.176,2467.201,1124.06,2509.087,1049.493C2550.507,975.756,2500.7,891.323,2457.928,818.362C2415.871,746.62,2366.424,668.037,2283.342,664.409C2195.791,660.586,2123.604,725.744,2080.183,801.865C2037.209,877.202,2020.931,970.564,2066.672,1044.254C2110.519,1114.893,2200.207,1128.179,2283.342,1129.163" fill="rgba(109, 113, 249, 0.075)" class="triangle-float1"></path><path d="M856.108,626.953C972.075,636.955,1098.425,614.223,1162.91,517.32C1233.383,411.417,1229.986,271.216,1165.998,161.273C1102.383,51.972,982.461,-15.166,856.108,-9.818C737.82,-4.811,639.084,78.646,588.553,185.715C544.575,278.901,575.631,383.166,629.058,471.275C680.054,555.375,758.119,618.501,856.108,626.953" fill="rgba(109, 113, 249, 0.075)" class="triangle-float3"></path><path d="M1213.822,1210.863C1271.849,1210.541,1321.446,1171.382,1348.473,1120.032C1373.682,1072.136,1368.482,1015.497,1341.278,968.705C1314.23,922.182,1267.629,887.554,1213.822,888.432C1161.301,889.289,1120.026,927.486,1093.373,972.75C1066.23,1018.847,1052.415,1073.804,1076.562,1121.539C1102.972,1173.747,1155.315,1211.187,1213.822,1210.863" fill="rgba(109, 113, 249, 0.075)" class="triangle-float2"></path><path d="M266.34,469.413C329.604,464.978,391.721,444.984,425.86,391.538C462.749,333.786,469.635,261.099,438.347,200.131C404.189,133.571,341.143,79.463,266.34,80.699C193.132,81.908,141.824,143.023,103.903,205.656C64.063,271.458,22.393,351.495,62.731,416.993C102.121,480.952,191.409,474.666,266.34,469.413" fill="rgba(109, 113, 249, 0.075)" class="triangle-float2"></path><path d="M229.071,1182.546C347.109,1181.068,484.015,1176.951,540.999,1073.569C596.978,972.01,526.861,855.196,462.78,758.545C407.367,674.968,329.265,607.207,229.071,603.1C121.524,598.691,20.216,648.948,-40.362,737.92C-110.378,840.754,-161.162,975.157,-96.688,1081.554C-33.541,1185.761,107.234,1184.072,229.071,1182.546" fill="rgba(109, 113, 249, 0.075)" class="triangle-float1"></path><path d="M1379.44,1115.876C1518.418,1108.646,1603.787,981.621,1674.844,861.963C1748.139,738.537,1827.957,597.973,1763.009,469.958C1693.8,333.545,1532.404,279.099,1379.44,279.716C1227.681,280.328,1076.794,341.442,1001.195,473.032C925.841,604.196,948.821,765.365,1025.533,895.74C1101.045,1024.076,1230.738,1123.611,1379.44,1115.876" fill="rgba(109, 113, 249, 0.075)" class="triangle-float2"></path><path d="M1922.345,952.826C2079.12,961.172,2221.607,856.84,2293.231,717.133C2359.335,588.193,2327.887,436.009,2249.917,313.878C2178.274,201.657,2055.366,141.809,1922.345,136.182C1777.017,130.034,1614.607,157.375,1542.974,283.972C1472.013,409.382,1542.988,555.643,1614.078,680.98C1686.523,808.705,1775.713,945.02,1922.345,952.826" fill="rgba(109, 113, 249, 0.075)" class="triangle-float1"></path><path d="M2728.827,771.956C2858.232,774.383,2973.073,688.512,3031.64,573.093C3085.229,467.484,3054.458,346.989,2997.02,243.423C2937.315,135.77,2851.845,31.618,2728.827,27.095C2599.627,22.344,2484.731,108.143,2424.151,222.359C2367.171,329.788,2386.105,455.738,2445.065,562.094C2506.2,672.373,2602.758,769.592,2728.827,771.956" fill="rgba(109, 113, 249, 0.075)" class="triangle-float1"></path><path d="M991.854,456.497C1107.74,462.66,1224.244,405.43,1277.862,302.509C1328.408,205.484,1290.759,90.831,1229.611,0.113C1176.256,-79.044,1087.254,-118.422,991.854,-121.808C888.923,-125.461,775.925,-106.198,722.953,-17.868C668.899,72.265,702.262,183.224,754.091,274.655C806.828,367.687,885.065,450.818,991.854,456.497" fill="rgba(109, 113, 249, 0.075)" class="triangle-float2"></path><path d="M139.225,516.843C192.928,516.353,241.982,487.067,268.711,440.486C295.316,394.121,296.779,336.47,268.9,290.86C242.102,247.018,190.596,227.472,139.225,228.645C90.037,229.769,45.461,254.813,19.421,296.558C-8.371,341.111,-19.506,396.756,5.582,442.886C31.654,490.824,84.658,517.341,139.225,516.843" fill="rgba(109, 113, 249, 0.075)" class="triangle-float3"></path></g><defs><mask id="SvgjsMask1197"><rect width="2640" height="1440" fill="#ffffff"></rect></mask><style>
            @keyframes float1 {
                0%{transform: translate(0, 0)}
                50%{transform: translate(-10px, 0)}
                100%{transform: translate(0, 0)}
            }

            .triangle-float1 {
                animation: float1 5s infinite;
            }

            @keyframes float2 {
                0%{transform: translate(0, 0)}
                50%{transform: translate(-5px, -5px)}
                100%{transform: translate(0, 0)}
            }

            .triangle-float2 {
                animation: float2 4s infinite;
            }

            @keyframes float3 {
                0%{transform: translate(0, 0)}
                50%{transform: translate(0, -10px)}
                100%{transform: translate(0, 0)}
            }

            .triangle-float3 {
                animation: float3 6s infinite;
            }
        </style></defs></svg>