<svg xmlns="http://www.w3.org/2000/svg" version="1.1" xmlns:xlink="http://www.w3.org/1999/xlink" xmlns:svgjs="http://svgjs.com/svgjs" width="2640" height="1440" preserveAspectRatio="none" viewBox="0 0 2640 1440"><g mask="url(&quot;#SvgjsMask1203&quot;)" fill="none"><path d="M2076.73,1467.481C2147.281,1469.315,2225.991,1457.876,2261.15,1396.682C2296.228,1335.629,2268.239,1260.773,2229.139,1202.215C2194.83,1150.833,2138.51,1119.8,2076.73,1120.49C2016.173,1121.167,1962.433,1154.343,1930.109,1205.556C1895.162,1260.926,1876.216,1330.377,1908.198,1387.51C1940.752,1445.664,2010.106,1465.75,2076.73,1467.481" fill="rgba(109, 113, 249, 0.075)" class="triangle-float3"></path><path d="M237.511,1891.273C377.383,1883.37,476.362,1768.853,543.287,1645.777C606.569,1529.401,632.787,1393.816,572.023,1276.106C506.169,1148.536,381.075,1052.947,237.511,1053.441C94.665,1053.932,-20.447,1155.367,-93.04,1278.393C-167.081,1403.873,-203.768,1555.845,-134.606,1684.079C-62.374,1818.006,85.589,1899.857,237.511,1891.273" fill="rgba(109, 113, 249, 0.075)" class="triangle-float2"></path><path d="M230.832,962.35C331.009,954.888,396.589,864.426,439.043,773.383C474.43,697.496,468.431,612.658,428.119,539.269C386.012,462.612,318.19,398.553,230.832,394.33C136.515,389.77,48.995,439.309,-2.515,518.449C-59.585,606.132,-87.742,716.391,-39.062,808.996C12.541,907.161,120.236,970.588,230.832,962.35" fill="rgba(109, 113, 249, 0.075)" class="triangle-float2"></path><path d="M2361.167,1284.219C2429.186,1281.796,2477.821,1224.698,2509.193,1164.297C2537.761,1109.294,2546.427,1043.397,2513.531,990.867C2482.272,940.95,2420.009,930.464,2361.167,927.92C2295.632,925.087,2220.893,922.295,2184.14,976.628C2144.278,1035.558,2158.181,1113.876,2193.67,1175.539C2229.252,1237.365,2289.878,1286.759,2361.167,1284.219" fill="rgba(109, 113, 249, 0.075)" class="triangle-float1"></path><path d="M2432.043,1560.964C2546.261,1556.84,2660.355,1525.652,2724.34,1430.949C2796.725,1323.812,2828.8,1182.416,2763.005,1071.11C2698.048,961.222,2559.689,937.606,2432.043,936.469C2301.726,935.308,2161.02,955.394,2090.706,1065.12C2015.824,1181.975,2022.049,1339.146,2100.746,1453.466C2171.305,1555.964,2307.688,1565.454,2432.043,1560.964" fill="rgba(109, 113, 249, 0.075)" class="triangle-float2"></path><path d="M1821.433,572.194C1939.44,570.933,2040.671,495.035,2098.32,392.06C2154.562,291.598,2155.301,172.227,2102.675,69.824C2044.711,-42.965,1948.098,-140.634,1821.433,-146.72C1685.352,-153.258,1552.688,-80.16,1489.134,40.346C1429.043,154.286,1465.85,288.842,1534.106,398.087C1597.706,499.879,1701.413,573.476,1821.433,572.194" fill="rgba(109, 113, 249, 0.075)" class="triangle-float3"></path><path d="M873.559,769.9C924.426,772.572,980.09,764.358,1007.68,721.54C1037.101,675.88,1029.118,617.008,1002.631,569.585C975.399,520.828,929.333,478.557,873.559,481.406C820.948,484.094,788.72,534.429,765.471,581.701C745.451,622.408,739.216,669.286,761.809,708.624C784.485,748.107,828.09,767.511,873.559,769.9" fill="rgba(109, 113, 249, 0.075)" class="triangle-float3"></path><path d="M1389.139,1233.743C1429.114,1231.769,1461.483,1203.926,1480.269,1168.584C1497.836,1135.535,1496.812,1096.986,1479.459,1063.824C1460.593,1027.77,1429.809,995.773,1389.139,994.43C1346.537,993.023,1309.463,1020.752,1287.86,1057.497C1265.928,1094.801,1259.402,1140.906,1280.963,1178.426C1302.591,1216.062,1345.784,1235.884,1389.139,1233.743" fill="rgba(109, 113, 249, 0.075)" class="triangle-float2"></path><path d="M1125.041,806.419C1218.173,806.533,1314.662,786.377,1366.961,709.316C1425.758,622.68,1440.887,508.188,1389.263,417.095C1337.025,324.919,1230.677,274.305,1125.041,282.441C1030.86,289.694,969.486,370.766,923.014,453.003C877.551,533.455,838.288,628.497,884.149,708.723C930.239,789.35,1032.17,806.305,1125.041,806.419" fill="rgba(109, 113, 249, 0.075)" class="triangle-float3"></path><path d="M483.666,945.606C630.655,945.406,794.228,938.639,873.84,815.077C958.351,683.912,927.986,513.446,848.697,379.06C770.822,247.07,636.915,154.647,483.666,153.773C328.97,152.891,190.144,241.725,111.352,374.855C30.973,510.666,5.424,683.965,91.647,816.143C172.232,939.678,336.171,945.807,483.666,945.606" fill="rgba(109, 113, 249, 0.075)" class="triangle-float1"></path><path d="M2152.349,1037.951C2264.597,1035.275,2343.366,942.91,2402.153,847.25C2464.932,745.093,2525.9,625.628,2471.361,518.844C2413.315,405.194,2279.871,353.268,2152.349,358.149C2033.01,362.716,1929.827,436.704,1873.001,541.744C1818.937,641.678,1825.287,760.664,1881.026,859.674C1937.926,960.745,2036.395,1040.715,2152.349,1037.951" fill="rgba(109, 113, 249, 0.075)" class="triangle-float2"></path><path d="M1692.842,1175.041C1842.521,1178.288,2010.312,1152.886,2082.939,1021.968C2154.273,893.38,2085.384,739.328,2001.588,618.491C1930.88,516.528,1816.913,461.038,1692.842,459.434C1565.521,457.788,1440.271,504.171,1369.95,610.324C1291.572,728.64,1260.554,882.451,1330.999,1005.655C1401.849,1129.567,1550.139,1171.945,1692.842,1175.041" fill="rgba(109, 113, 249, 0.075)" class="triangle-float3"></path></g><defs><mask id="SvgjsMask1203"><rect width="2640" height="1440" fill="#ffffff"></rect></mask><style>
            @keyframes float1 {
                0%{transform: translate(0, 0)}
                50%{transform: translate(-10px, 0)}
                100%{transform: translate(0, 0)}
            }

            .triangle-float1 {
                animation: float1 5s infinite;
            }

            @keyframes float2 {
                0%{transform: translate(0, 0)}
                50%{transform: translate(-5px, -5px)}
                100%{transform: translate(0, 0)}
            }

            .triangle-float2 {
                animation: float2 4s infinite;
            }

            @keyframes float3 {
                0%{transform: translate(0, 0)}
                50%{transform: translate(0, -10px)}
                100%{transform: translate(0, 0)}
            }

            .triangle-float3 {
                animation: float3 6s infinite;
            }
        </style></defs></svg>