<svg xmlns="http://www.w3.org/2000/svg" version="1.1" xmlns:xlink="http://www.w3.org/1999/xlink" xmlns:svgjs="http://svgjs.com/svgjs" width="2640" height="1440" preserveAspectRatio="none" viewBox="0 0 2640 1440"><g mask="url(&quot;#SvgjsMask1198&quot;)" fill="none"><path d="M1022.285,1194.734C1091.33,1193.095,1129.422,1120.923,1159.859,1058.927C1185.817,1006.054,1198.098,945.991,1169.754,894.358C1140.401,840.887,1083.278,809.108,1022.285,808.314C959.853,807.501,899.349,836.426,868.013,890.43C836.567,944.623,844.582,1009.853,872.914,1065.738C904.797,1128.629,951.794,1196.407,1022.285,1194.734" fill="rgba(109, 113, 249, 0.075)" class="triangle-float2"></path><path d="M1461.407,1486.923C1524.861,1485.951,1577.069,1441.974,1607.947,1386.532C1637.91,1332.733,1640.596,1269.433,1613.27,1214.248C1582.222,1151.548,1531.35,1088.802,1461.407,1090.596C1393.177,1092.346,1353.67,1161.007,1322.461,1221.706C1294.664,1275.769,1278.665,1337.297,1306.876,1391.145C1337.018,1448.68,1396.462,1487.918,1461.407,1486.923" fill="rgba(109, 113, 249, 0.075)" class="triangle-float1"></path><path d="M2113.583,1279.539C2158.441,1279.949,2206.589,1268.125,2228.526,1228.995C2250.126,1190.466,2232.304,1145.09,2210.487,1106.684C2188.309,1067.643,2158.292,1030.799,2113.583,1026.655C2061.56,1021.833,2004.999,1039.621,1979.609,1085.283C1954.705,1130.07,1973.129,1184.741,2002.223,1226.926C2027.205,1263.149,2069.583,1279.137,2113.583,1279.539" fill="rgba(109, 113, 249, 0.075)" class="triangle-float1"></path><path d="M2255.982,1880.578C2380.423,1889.388,2499.303,1816.852,2559.212,1707.426C2617.013,1601.85,2595.825,1475.126,2534.743,1371.414C2474.694,1269.457,2374.293,1194.441,2255.982,1192.572C2134.565,1190.653,2015.599,1253.624,1961.534,1362.356C1911.881,1462.215,1963.903,1572.216,2018.997,1669.18C2075.046,1767.826,2142.808,1872.566,2255.982,1880.578" fill="rgba(109, 113, 249, 0.075)" class="triangle-float1"></path><path d="M1294.929,1358.539C1423.678,1360.178,1500.403,1227.811,1558.798,1113.055C1610.431,1011.589,1637.609,894.317,1581.588,795.206C1524.794,694.727,1410.337,647.848,1294.929,646.224C1176.238,644.553,1051.033,682.863,993.942,786.935C938.405,888.173,988.641,1004.311,1042.441,1106.483C1101.827,1219.263,1167.479,1356.917,1294.929,1358.539" fill="rgba(109, 113, 249, 0.075)" class="triangle-float3"></path><path d="M962.589,390.046C1061.634,393.928,1157.393,353.341,1213.487,271.619C1278.459,176.962,1320.099,52.922,1261.935,-46.064C1204.256,-144.225,1076.442,-155.305,962.589,-155.373C848.571,-155.441,716.488,-146.915,662.623,-46.423C610.238,51.308,680.785,161.819,743.589,253.203C795.844,329.238,870.4,386.433,962.589,390.046" fill="rgba(109, 113, 249, 0.075)" class="triangle-float3"></path><path d="M456.672,991.398C525.612,991.595,586.771,950.64,621.521,891.099C656.575,831.037,663.132,757.023,628.739,696.58C593.995,635.519,526.833,597.783,456.672,601.387C391.723,604.724,344.725,656.197,312.723,712.814C281.362,768.297,264.189,833.54,293.446,890.161C324.946,951.124,388.052,991.202,456.672,991.398" fill="rgba(109, 113, 249, 0.075)" class="triangle-float2"></path><path d="M739.308,576.515C832.532,576.218,910.414,516.909,960.703,438.412C1016.228,351.741,1061.026,243.701,1009.673,154.494C958.25,65.166,842.016,45.164,739.308,53.816C651.867,61.182,581.816,118.336,537.795,194.246C493.598,270.46,474.37,361.896,515.454,439.832C559.151,522.725,645.603,576.814,739.308,576.515" fill="rgba(109, 113, 249, 0.075)" class="triangle-float1"></path><path d="M617.552,2032.827C770.131,2028.578,877.057,1898.294,949.622,1764.008C1017.841,1637.764,1054.495,1485.648,979.267,1363.451C906.7,1245.577,755.801,1217.715,617.552,1224.612C492.854,1230.833,381.747,1292.201,313.376,1396.67C236.755,1513.745,191.464,1657.211,251.821,1783.442C320.042,1926.12,459.464,2037.23,617.552,2032.827" fill="rgba(109, 113, 249, 0.075)" class="triangle-float1"></path><path d="M1762.7,1832.567C1892.56,1840.043,2037.511,1820.341,2105.29,1709.321C2175.042,1595.069,2140.789,1447.373,2065.389,1336.768C1999.096,1239.523,1880.383,1205.325,1762.7,1206.771C1648.056,1208.18,1531.687,1245.781,1472.628,1344.053C1411.983,1444.965,1422.128,1572.219,1482.238,1673.451C1541.056,1772.507,1647.688,1825.946,1762.7,1832.567" fill="rgba(109, 113, 249, 0.075)" class="triangle-float1"></path><path d="M2088.823,1270.76C2169.896,1268.927,2250.401,1233.122,2287.519,1161.021C2322.257,1093.544,2290.596,1017.442,2253.246,951.375C2215.069,883.845,2166.135,815.931,2088.823,809.559C2001.473,802.36,1914.491,844.459,1869.643,919.761C1823.821,996.697,1826.5,1094.418,1873.93,1170.373C1918.812,1242.249,2004.107,1272.676,2088.823,1270.76" fill="rgba(109, 113, 249, 0.075)" class="triangle-float3"></path><path d="M786.653,1635.376C905.603,1626.261,985.441,1529.049,1047.912,1427.414C1114.777,1318.63,1186.597,1192.919,1128.504,1079.208C1066.934,958.693,921.701,907.259,786.653,916.029C665.425,923.902,577.344,1015.502,513.93,1119.12C446.602,1229.133,385.185,1359.535,445.431,1473.58C508.451,1592.874,652.13,1645.684,786.653,1635.376" fill="rgba(109, 113, 249, 0.075)" class="triangle-float3"></path></g><defs><mask id="SvgjsMask1198"><rect width="2640" height="1440" fill="#ffffff"></rect></mask><style>
            @keyframes float1 {
                0%{transform: translate(0, 0)}
                50%{transform: translate(-10px, 0)}
                100%{transform: translate(0, 0)}
            }

            .triangle-float1 {
                animation: float1 5s infinite;
            }

            @keyframes float2 {
                0%{transform: translate(0, 0)}
                50%{transform: translate(-5px, -5px)}
                100%{transform: translate(0, 0)}
            }

            .triangle-float2 {
                animation: float2 4s infinite;
            }

            @keyframes float3 {
                0%{transform: translate(0, 0)}
                50%{transform: translate(0, -10px)}
                100%{transform: translate(0, 0)}
            }

            .triangle-float3 {
                animation: float3 6s infinite;
            }
        </style></defs></svg>